<svg width="237" height="237" viewBox="0 0 237 237" fill="none" xmlns="http://www.w3.org/2000/svg">
<path d="M86.5001 56.5001C105.914 47.3119 121.515 41.9077 143.5 47.0001C169.171 52.9464 186.053 65.4009 195.5 90.0001C206.434 118.469 213.519 140.748 186 172.5C155.042 208.22 93.4254 204.48 66.1194 165.897C42.2343 132.148 49.1279 74.1872 86.5001 56.5001Z" stroke="#CCBBF2"/>
<path d="M76.2999 53.462C95.7142 44.2738 111.315 38.8696 133.3 43.962C158.971 49.9083 175.853 62.3628 185.3 86.962C196.233 115.431 203.319 137.71 175.8 169.462C144.842 205.181 83.2252 201.442 55.9192 162.859C32.0341 129.11 38.9277 71.1491 76.2999 53.462Z" stroke="#CCBBF2"/>
<path d="M65.2999 50.462C84.7142 41.2738 100.315 35.8696 122.3 40.962C147.971 46.9083 164.853 59.3628 174.3 83.962C185.233 112.431 192.319 134.71 164.8 166.462C133.842 202.181 72.2252 198.442 44.9192 159.859C21.0341 126.11 27.9277 68.1491 65.2999 50.462Z" stroke="#CCBBF2"/>
</svg>
