<svg width="71" height="68" viewBox="0 0 71 68" fill="none" xmlns="http://www.w3.org/2000/svg">
<path d="M7.2314 44.2618C7.33976 38.9703 7.8633 34.9359 11.4034 30.6477C15.5372 25.6404 20.1397 23.2871 26.6031 23.9084C34.0832 24.6274 39.7751 25.5143 43.7515 35.0739C48.2246 45.828 40.6253 59.0046 29.1148 60.7841C19.0463 62.3406 7.02279 54.4478 7.2314 44.2618Z" stroke="#F22078"/>
<path d="M51.5835 15.394C51.5674 13.2546 51.7412 11.6286 53.1856 9.93528C54.8722 7.95798 56.7878 7.05981 59.5238 7.38679C62.6902 7.76521 65.1037 8.19062 66.8943 12.1045C68.9086 16.5074 65.8546 21.749 61.0158 22.3342C56.7832 22.846 51.6147 19.5123 51.5835 15.394Z" stroke="#F22078"/>
<path d="M36.4867 9.82973C35.4691 9.49997 34.7251 9.16104 34.1494 8.20863C33.4773 7.09652 33.3533 6.04599 33.94 4.79942C34.6189 3.35675 35.2014 2.27876 37.3409 2.04648C39.7476 1.78519 41.7529 4.06098 41.2673 6.4491C40.8426 8.53803 38.4456 10.4645 36.4867 9.82973Z" stroke="#F22078"/>
</svg>
