<svg width="111" height="107" viewBox="0 0 111 107" fill="none" xmlns="http://www.w3.org/2000/svg">
<path d="M10.3999 70.1293C10.5734 61.6576 11.4115 55.1983 17.0794 48.3329C23.6976 40.3162 31.0663 36.5485 41.4142 37.5431C53.39 38.6943 62.5028 40.1143 68.869 55.4194C76.0305 72.6368 63.8641 93.7327 45.4356 96.5816C29.3157 99.0736 10.0659 86.4372 10.3999 70.1293Z" stroke="#FDCBD4"/>
<path d="M81.408 23.9117C81.3821 20.4865 81.6603 17.8833 83.9729 15.1722C86.6732 12.0065 89.74 10.5685 94.1204 11.092C99.1899 11.6979 103.054 12.379 105.921 18.6451C109.146 25.6942 104.256 34.0862 96.5091 35.023C89.7327 35.8425 81.4578 30.5051 81.408 23.9117Z" stroke="#FDCBD4"/>
<path d="M57.2386 15.0027C55.6093 14.4748 54.4181 13.9321 53.4965 12.4073C52.4204 10.6268 52.2218 8.94487 53.1611 6.9491C54.2482 4.63937 55.1808 2.91348 58.606 2.5416C62.4592 2.12327 65.6697 5.76685 64.8923 9.59025C64.2123 12.9347 60.3748 16.019 57.2386 15.0027Z" stroke="#FDCBD4"/>
</svg>
