<svg width="24" height="24" viewBox="0 0 24 24" fill="none" xmlns="http://www.w3.org/2000/svg">
<path d="M21 17.2205C21 16.6039 20.7555 16.0126 20.3202 15.576C20.2969 15.5535 18.4872 14.1614 18.4872 14.1614C18.0534 13.7487 17.4774 13.5189 16.8786 13.5197C16.2799 13.5206 15.7045 13.752 15.2719 14.1659L14.1713 15.0411C13.0026 14.5572 11.941 13.8472 11.0475 12.9518C10.1539 12.0565 9.44607 10.9934 8.96453 9.82367L9.83446 8.72985C10.2473 8.29638 10.4779 7.72094 10.4788 7.12232C10.4796 6.52371 10.2506 5.94763 9.83897 5.513C9.83897 5.513 8.44768 3.70399 8.42439 3.68145C7.99515 3.25035 7.41344 3.00558 6.80511 3.00009C6.19678 2.99461 5.61075 3.22886 5.17381 3.65215L4.30989 4.4034C-1.48888 10.5757 13.4817 25.5421 19.6351 19.6538L20.3202 18.865C20.7555 18.4284 21 17.837 21 17.2205Z" fill="#FDFEFF"/>
</svg>
