<svg width="24" height="24" viewBox="0 0 24 24" fill="none" xmlns="http://www.w3.org/2000/svg">
<path fill-rule="evenodd" clip-rule="evenodd" d="M4 4C2.89543 4 2 4.89543 2 6V18C2 19.1046 2.89543 20 4 20H20C21.1046 20 22 19.1046 22 18V6C22 4.89543 21.1046 4 20 4H4ZM6.70711 7.29289C6.31658 6.90237 5.68342 6.90237 5.29289 7.29289C4.90237 7.68342 4.90237 8.31658 5.29289 8.70711L9.87868 13.2929C11.0503 14.4645 12.9497 14.4645 14.1213 13.2929L18.7071 8.70711C19.0976 8.31658 19.0976 7.68342 18.7071 7.29289C18.3166 6.90237 17.6834 6.90237 17.2929 7.29289L12.7071 11.8787C12.3166 12.2692 11.6834 12.2692 11.2929 11.8787L6.70711 7.29289Z" fill="white"/>
</svg>
