<svg width="174" height="183" viewBox="0 0 174 183" fill="none" xmlns="http://www.w3.org/2000/svg">
<path d="M87.1581 13.1523C89.0659 8.39537 95.8 8.39538 97.7078 13.1524L113.81 53.3029C114.58 55.2215 116.33 56.5709 118.382 56.8269L158.314 61.809C162.974 62.3904 164.958 68.0523 161.68 71.4153L131.09 102.799C129.804 104.118 129.238 105.979 129.57 107.791L137.799 152.636C138.696 157.528 133.322 161.131 129.138 158.444L95.5041 136.843C93.633 135.642 91.2329 135.642 89.3618 136.843L55.7282 158.444C51.5437 161.131 46.1696 157.528 47.0672 152.636L55.2958 107.791C55.6283 105.979 55.0617 104.118 53.7757 102.799L23.1861 71.4153C19.9082 68.0523 21.8922 62.3904 26.5523 61.809L66.4843 56.8269C68.5356 56.5709 70.2861 55.2214 71.0556 53.3029L87.1581 13.1523Z" fill="#B7C4F2" fill-opacity="0.2"/>
<path opacity="0.5" d="M76.9727 13.3389C78.7126 9.0004 84.8548 9.0004 86.5947 13.3389L102.697 53.4893C103.534 55.5763 105.438 57.0447 107.67 57.3232L147.603 62.3047C151.853 62.8351 153.661 67.9993 150.672 71.0664L120.083 102.45C118.684 103.886 118.067 105.91 118.429 107.882L126.657 152.727C127.476 157.188 122.575 160.474 118.759 158.023L85.125 136.423C83.0893 135.115 80.4781 135.115 78.4424 136.423L44.8086 158.023C40.9923 160.474 36.0908 157.188 36.9092 152.727L45.1377 107.882C45.4995 105.91 44.8834 103.886 43.4844 102.45L12.8945 71.0664C9.90504 67.9993 11.7147 62.8349 15.9648 62.3047L55.8965 57.3232C58.1281 57.0448 60.0329 55.5765 60.8701 53.4893L76.9727 13.3389Z" stroke="#7791EE" stroke-opacity="0.75"/>
</svg>
