<svg width="83" height="83" viewBox="0 0 83 83" fill="none" xmlns="http://www.w3.org/2000/svg">
<path d="M38.8857 3.46487C39.5368 0.706692 43.4632 0.706686 44.1143 3.46487L50.3535 29.9063C50.6742 31.2651 51.7349 32.3258 53.0938 32.6465L79.5352 38.8858C82.2933 39.5369 82.2933 43.4632 79.5352 44.1143L53.0938 50.3535C51.7349 50.6742 50.6742 51.7349 50.3535 53.0938L44.1143 79.5352C43.4632 82.2933 39.5368 82.2933 38.8857 79.5352L32.6465 53.0938C32.3258 51.735 31.2651 50.6743 29.9062 50.3535L3.46484 44.1143C0.706651 43.4632 0.706666 39.5368 3.46484 38.8858L29.9062 32.6465C31.2651 32.3258 32.3258 31.2651 32.6465 29.9063L38.8857 3.46487Z" stroke="#EF8C3B"/>
</svg>
