<svg width="89" height="89" viewBox="0 0 89 89" fill="none" xmlns="http://www.w3.org/2000/svg">
<g opacity="0.6">
<path d="M37.4152 26.5208C37.8703 24.5922 40.615 24.5922 41.0701 26.5208L44.7476 42.1052C44.9109 42.7975 45.4515 43.3381 46.1438 43.5014L61.7282 47.1789C63.6567 47.634 63.6568 50.3787 61.7282 50.8338L46.1438 54.5112C45.4515 54.6746 44.9109 55.2151 44.7476 55.9075L41.0701 71.4919C40.615 73.4204 37.8703 73.4204 37.4152 71.4919L33.7377 55.9075C33.5744 55.2151 33.0338 54.6746 32.3415 54.5112L16.7571 50.8338C14.8286 50.3787 14.8286 47.634 16.7571 47.1789L32.3415 43.5014C33.0338 43.3381 33.5744 42.7975 33.7377 42.1052L37.4152 26.5208Z" fill="#B7C4F2"/>
<path d="M65.4292 13.3713C65.6412 12.4729 66.9198 12.4729 67.1318 13.3713L68.8449 20.6311C68.921 20.9536 69.1728 21.2055 69.4953 21.2816L76.7552 22.9947C77.6536 23.2066 77.6535 24.4853 76.7552 24.6972L69.4953 26.4103C69.1728 26.4864 68.921 26.7383 68.8449 27.0608L67.1318 34.3206C66.9198 35.219 65.6412 35.219 65.4292 34.3206L63.7161 27.0608C63.64 26.7383 63.3882 26.4864 63.0657 26.4103L55.8059 24.6972C54.9075 24.4853 54.9075 23.2066 55.8059 22.9947L63.0657 21.2816C63.3882 21.2055 63.64 20.9536 63.7161 20.6311L65.4292 13.3713Z" fill="#B7C4F2"/>
</g>
<g opacity="0.5">
<path d="M34.1465 24.7581C34.4804 23.3431 36.4942 23.3431 36.8281 24.7581L40.5059 40.342C40.7127 41.2187 41.3977 41.9037 42.2744 42.1106L57.8584 45.7874C59.2734 46.1212 59.2734 48.1351 57.8584 48.469L42.2744 52.1467C41.3977 52.3536 40.7127 53.0386 40.5059 53.9153L36.8281 69.4993C36.4942 70.9142 34.4804 70.9142 34.1465 69.4993L30.4697 53.9153C30.2629 53.0386 29.5778 52.3536 28.7012 52.1467L13.1172 48.469C11.7022 48.1351 11.7022 46.1212 13.1172 45.7874L28.7012 42.1106C29.5778 41.9037 30.2629 41.2187 30.4697 40.342L34.1465 24.7581Z" stroke="#7791EE"/>
<path d="M62.1611 11.6086C62.2519 11.2238 62.7998 11.2238 62.8906 11.6086L64.6035 18.8684C64.7232 19.3752 65.1192 19.7713 65.626 19.8909L72.8857 21.6038C73.2702 21.6948 73.2703 22.2423 72.8857 22.3333L65.626 24.0461C65.1191 24.1657 64.7231 24.5617 64.6035 25.0686L62.8906 32.3284C62.7997 32.7129 62.2522 32.7128 62.1611 32.3284L60.4482 25.0686C60.3286 24.5618 59.9326 24.1658 59.4258 24.0461L52.166 22.3333C51.7812 22.2424 51.7812 21.6946 52.166 21.6038L59.4258 19.8909C59.9326 19.7713 60.3286 19.3752 60.4482 18.8684L62.1611 11.6086Z" stroke="#7791EE"/>
</g>
</svg>
