<svg width="159" height="18" viewBox="0 0 159 18" fill="none" xmlns="http://www.w3.org/2000/svg">
<path d="M4.68145 6.31088H8.20887V4.59072H4.68145V1.32458H2.56936V4.59072H0V6.31088H2.56936V11.8197C2.56936 12.9956 2.6129 13.9536 3.04839 14.8246C3.48387 15.6956 4.28952 16.1964 5.33468 16.4359C6.14032 16.6101 7.38145 16.5665 8.20887 16.3488V14.498C7.59919 14.6068 6.88065 14.6286 6.27097 14.5851C5.72661 14.5197 5.20403 14.2149 4.94274 13.7359C4.65968 13.2786 4.68145 12.6472 4.68145 11.6891V6.31088Z" fill="#F7F7F7"/>
<path d="M16.0797 16.6754C17.8216 16.6754 19.3676 16.0439 20.4345 14.7375C21.4144 13.4964 21.8063 12.0593 21.8063 10.4697C21.8063 8.92378 21.4362 7.44313 20.4345 6.18023C19.3894 4.89555 17.7781 4.2641 16.0797 4.2641C14.3813 4.2641 12.7482 4.9391 11.7466 6.18023C10.7886 7.37781 10.3749 8.88023 10.3749 10.4697C10.3749 12.0157 10.745 13.4964 11.7466 14.7375C12.7918 16.0222 14.3813 16.6754 16.0797 16.6754ZM18.7579 13.4528C18.1482 14.2585 17.1466 14.6722 16.0797 14.6722C15.0128 14.6722 14.0112 14.2585 13.4232 13.4528C12.8136 12.6472 12.6176 11.5585 12.6176 10.4697C12.6176 9.38104 12.8136 8.27055 13.4232 7.46491C14.0112 6.65926 15.0128 6.26733 16.0797 6.26733C17.1466 6.26733 18.1482 6.65926 18.7579 7.46491C19.3676 8.27055 19.5636 9.38104 19.5636 10.4697C19.5636 11.5585 19.3676 12.6472 18.7579 13.4528Z" fill="#F7F7F7"/>
<path d="M29.4553 16.6754C31.1973 16.6754 32.7432 16.0439 33.8102 14.7375C34.79 13.4964 35.1819 12.0593 35.1819 10.4697C35.1819 8.92378 34.8118 7.44313 33.8102 6.18023C32.765 4.89555 31.1537 4.2641 29.4553 4.2641C27.7569 4.2641 26.1239 4.9391 25.1223 6.18023C24.1642 7.37781 23.7505 8.88023 23.7505 10.4697C23.7505 12.0157 24.1206 13.4964 25.1223 14.7375C26.1674 16.0222 27.7569 16.6754 29.4553 16.6754ZM32.1335 13.4528C31.5239 14.2585 30.5223 14.6722 29.4553 14.6722C28.3884 14.6722 27.3868 14.2585 26.7989 13.4528C26.1892 12.6472 25.9932 11.5585 25.9932 10.4697C25.9932 9.38104 26.1892 8.27055 26.7989 7.46491C27.3868 6.65926 28.3884 6.26733 29.4553 6.26733C30.5223 6.26733 31.5239 6.65926 32.1335 7.46491C32.7432 8.27055 32.9392 9.38104 32.9392 10.4697C32.9392 11.5585 32.7432 12.6472 32.1335 13.4528Z" fill="#F7F7F7"/>
<path d="M46.4237 5.37459C45.5092 4.61249 44.2463 4.24233 43.0487 4.30765C41.96 4.3512 40.7842 4.72136 39.8914 5.52701L39.6737 5.74475V4.59072H37.7793V16.3488H39.9132V10.3609C39.9132 9.79475 39.935 9.27217 40.0438 8.81491C40.1963 8.07459 40.5229 7.42136 41.0454 6.98588C41.5245 6.59394 42.1559 6.3762 42.8309 6.33265C43.6801 6.31088 44.3987 6.52862 44.943 6.9641C45.9229 7.74797 46.0971 9.03265 46.0971 10.5351V16.3488H48.2309V10.5351C48.2527 8.42297 47.9914 6.63749 46.4237 5.37459Z" fill="#F7F7F7"/>
<path d="M52.7948 7.70442C52.8601 7.57378 52.969 7.44313 53.0561 7.33426C53.644 6.59394 54.5367 6.26733 55.5384 6.26733C56.344 6.24555 57.1496 6.44152 57.7593 6.89878C58.2819 7.26894 58.6085 7.85684 58.6956 8.4883L56.4311 8.81491C54.6456 9.0762 53.448 9.1633 52.1851 9.88184C51.0746 10.5351 50.3996 11.6456 50.3996 12.9085C50.3996 13.7794 50.6609 14.4109 51.1617 15.1512C51.7932 16.0004 52.9908 16.6101 54.1884 16.6536C55.19 16.6972 56.1916 16.4577 57.1061 15.9568C57.8464 15.5867 58.6303 14.8899 59.0004 14.106V16.3488H60.873V8.96733C60.873 8.29233 60.7206 7.53023 60.3722 6.81168C59.5013 5.04797 57.7375 4.28588 55.5819 4.28588C53.7529 4.28588 52.2069 4.91733 51.1617 6.31088L50.8569 6.76813L52.7948 7.70442ZM58.7827 10.252C58.7827 10.9923 58.7827 11.6673 58.3908 12.473C57.8029 13.9754 55.9738 14.781 54.4932 14.7157C53.3392 14.6504 52.49 13.7577 52.5117 12.7778C52.5335 11.2754 54.3843 10.9706 56.1263 10.6875C57.3456 10.4697 58.1077 10.3609 58.7827 10.252Z" fill="#F7F7F7"/>
<path d="M76.8408 0V0C78.2061 4.28055 81.5602 7.63465 85.8408 9V9V9C81.5602 10.3654 78.2061 13.7195 76.8408 18V18V18C75.4754 13.7195 72.1213 10.3654 67.8408 9V9V9C72.1213 7.63465 75.4754 4.28055 76.8408 0V0Z" fill="#F7F7F7"/>
<path d="M102.803 8.06371C102.433 6.8879 101.496 5.79919 100.342 5.23306C99.5585 4.81935 98.6876 4.64516 97.8601 4.64516C97.0545 4.62338 96.2053 4.71048 95.3343 5.10241C94.2021 5.60322 93.3311 6.71371 93.3311 8.02016C93.3311 8.80403 93.6795 9.69677 94.4198 10.2847C95.073 10.8073 95.7916 11.0468 96.7279 11.3081C97.49 11.5258 98.1432 11.6782 98.7311 11.8524C99.4714 12.0702 99.9505 12.2444 100.299 12.571C100.604 12.854 100.734 13.1806 100.713 13.5726C100.669 13.9645 100.495 14.2694 100.146 14.5306C99.6674 14.9008 98.7529 15.0314 98.0126 15.0314C97.1198 15.0314 96.2053 14.8355 95.5739 14.1387C95.1601 13.7032 94.8989 12.9629 94.8335 12.3968L92.8085 12.8976C92.9174 13.6379 93.4182 14.8137 94.0497 15.5105C95.073 16.621 96.4666 17.0564 98.0343 17.0564C99.2101 17.0564 100.386 16.8605 101.3 16.2726C102.193 15.7065 102.781 14.7919 102.868 13.7468C102.955 12.6581 102.52 11.7435 101.605 11.025C100.887 10.4153 100.212 10.2194 99.319 9.95806C98.4916 9.74032 97.7513 9.54435 97.1851 9.37016C96.4448 9.15242 96.0311 8.95645 95.748 8.69516C95.5739 8.49919 95.4868 8.25967 95.4868 7.97661C95.4868 7.60645 95.748 7.23629 96.2271 6.975C96.6626 6.75725 97.2287 6.64838 97.8384 6.64838C98.4045 6.64838 98.9706 6.77903 99.4279 7.01854C100.038 7.32338 100.517 7.93306 100.734 8.56451L102.803 8.06371Z" fill="#F7F7F7"/>
<path d="M108.729 6.69193H112.256V4.97177H108.729V1.70564H106.617V4.97177H104.048V6.69193H106.617V12.2008C106.617 13.3766 106.66 14.3347 107.096 15.2056C107.531 16.0766 108.337 16.5774 109.382 16.8169C110.188 16.9911 111.429 16.9476 112.256 16.7298V14.879C111.647 14.9879 110.928 15.0097 110.319 14.9661C109.774 14.9008 109.252 14.596 108.99 14.1169C108.707 13.6597 108.729 13.0282 108.729 12.0702V6.69193Z" fill="#F7F7F7"/>
<path d="M122.958 4.97177V10.9597C122.958 11.5258 122.936 12.0484 122.827 12.5056C122.697 13.246 122.348 13.8992 121.826 14.3129C121.347 14.7266 120.715 14.9444 120.04 14.9879C119.213 14.9879 118.472 14.7919 117.928 14.3347C116.948 13.5726 116.774 12.2879 116.774 10.7855V4.97177H114.64V10.7855C114.618 12.8976 114.88 14.6831 116.447 15.946C117.362 16.7081 118.625 17.0782 119.822 17.0129C120.911 16.9694 122.109 16.5992 122.98 15.7935C123.067 15.7064 123.154 15.6411 123.219 15.554V16.7298H125.092V4.97177H122.958Z" fill="#F7F7F7"/>
<path d="M136.667 1.05241V5.95161C135.731 5.12419 134.446 4.64516 133.096 4.64516C131.506 4.64516 129.982 5.29838 129.024 6.51774C128.088 7.71532 127.696 9.28306 127.696 10.8508C127.696 12.3968 128.044 13.921 129.024 15.1621C130.004 16.3814 131.506 17.0564 133.096 17.0564C134.62 17.0564 135.97 16.5339 136.906 15.4887V16.7298H138.779V1.05241H136.667ZM135.992 14.0081C135.36 14.7484 134.424 15.1403 133.357 15.1403C132.334 15.1403 131.31 14.7266 130.701 13.8556C130.135 13.0935 129.939 11.9831 129.939 10.8508C129.939 9.69677 130.156 8.58629 130.744 7.82419C131.354 6.95322 132.312 6.56129 133.423 6.56129C134.446 6.56129 135.404 6.93145 135.992 7.69354C136.645 8.47742 136.906 9.65322 136.906 10.8508C136.906 12.0266 136.645 13.2242 135.992 14.0081Z" fill="#F7F7F7"/>
<path d="M142.249 0.943542V3.05564H144.361V0.943542H142.249ZM142.249 4.97177V16.7298H144.361V4.97177H142.249Z" fill="#F7F7F7"/>
<path d="M152.885 17.0564C154.627 17.0564 156.173 16.425 157.24 15.1185C158.22 13.8774 158.612 12.4403 158.612 10.8508C158.612 9.30484 158.241 7.82419 157.24 6.56129C156.195 5.27661 154.583 4.64516 152.885 4.64516C151.187 4.64516 149.553 5.32016 148.552 6.56129C147.594 7.75887 147.18 9.26129 147.18 10.8508C147.18 12.3968 147.55 13.8774 148.552 15.1185C149.597 16.4032 151.187 17.0564 152.885 17.0564ZM155.563 13.8339C154.953 14.6395 153.952 15.0532 152.885 15.0532C151.818 15.0532 150.816 14.6395 150.228 13.8339C149.619 13.0282 149.423 11.9395 149.423 10.8508C149.423 9.76209 149.619 8.65161 150.228 7.84596C150.816 7.04032 151.818 6.64838 152.885 6.64838C153.952 6.64838 154.953 7.04032 155.563 7.84596C156.173 8.65161 156.369 9.76209 156.369 10.8508C156.369 11.9395 156.173 13.0282 155.563 13.8339Z" fill="#F7F7F7"/>
</svg>
